<?xml version="1.0" encoding="UTF-8" standalone="no"?>
<svg
   xmlns:svg="http://www.w3.org/2000/svg"
   xmlns="http://www.w3.org/2000/svg"
   width="1200.0"
   height="800.0"

>
    <g transform="scale(8.053691264357463, -8.053691264357463)   translate(56.48333333666667,-72.48333343666665)" stroke-width="0.4"  fill="none">
       <!-- hidden lines -->
       <g  stroke="rgb(180,180,190)" fill="none" stroke-dasharray="0.4,0.4" >

       </g>

       <!-- solid lines -->
       <g  stroke="rgb(30,30,30)" fill="none">
			<path d="M-22.0,9.0 L-22.0,21.0 " />
			<path d="M-22.0,8.5 L-22.0,9.0 " />
			<path d="M-19.0,9.0 L-19.0,21.0 " />
			<path d="M-19.0,8.5 L-19.0,9.0 " />
			<path d="M-19.0,8.5 L-5.734999999999999,8.5 " />
			<path d="M-0.7349999999999994,8.5 L10.534999999999997,8.5 " />
			<path d="M-22.0,21.0 L-19.0,21.0 " />
			<path d="M-0.7349999999999994,5.500000000000001 L10.534999999999997,5.500000000000001 " />
			<path d="M-22.0,9.0 L-19.0,9.0 " />
			<path d="M11.934999999999999,5.5 L11.934999999999999,8.5 " />
			<path d="M11.934999999999999,5.5 L15.934999999999999,5.5 " />
			<path d="M15.934999999999999,5.5 L15.934999999999999,8.5 " />
			<path d="M11.934999999999999,8.5 L15.934999999999999,8.5 " />
			<path d="M-41.0,10.0 L-41.0,21.0 " />
			<path d="M-41.0,5.5 L-41.0,10.0 " />
			<path d="M-38.0,8.5 L-38.0,10.0 " />
			<path d="M-38.0,10.0 L-38.0,21.0 " />
			<path d="M-38.0,8.5 L-5.734999999999999,8.5 " />
			<path d="M-5.734999999999999,8.5 L-5.734999999999999,9.5 " />
			<path d="M-5.734999999999999,9.5 L-0.7349999999999994,9.5 " />
			<path d="M-0.7349999999999994,5.5 L-0.7349999999999994,9.5 " />
			<path d="M-41.0,5.5 L-0.7349999999999994,5.5 " />
			<path d="M-41.0,10.0 L-38.0,10.0 " />
			<path d="M-41.0,21.0 L-38.0,21.0 " />
			<path d="M10.0,0.05000000000000017 L11.934999999999999,0.05000000000000017 " />
			<path d="M11.934999999999999,0.05000000000000017 L11.934999999999999,8.55 " />
			<path d="M10.534999999999998,8.55 L11.934999999999999,8.55 " />
			<path d="M10.534999999999998,8.322875655532298 L10.534999999999998,8.55 " />
			<path d="M11.724999999999998,8.322875655532295 L10.534999999999998,8.322875655532295 " />
			<path d="M11.724999999999998,8.322875655532295 L11.724999999999998,5.677124344467705 " />
			<path d="M11.724999999999998,5.677124344467705 L10.534999999999998,5.677124344467705 " />
			<path d="M10.534999999999998,0.40000000000000013 L10.534999999999998,5.677124344467702 " />
			<path d="M10.0,0.40000000000000013 L10.534999999999998,0.40000000000000013 " />
			<path d="M-1.9349999999999996,0.05000000000000017 L-1.9349999999999996,1.5000000000000002 " />
			<path d="M-1.9349999999999996,1.5000000000000002 L-1.8134999999999997,1.5000000000000002 " />
			<path d="M-1.9349999999999996,0.05000000000000017 L0.0,0.05000000000000017 " />
			<path d="M-0.5349999999999997,0.40000000000000013 L0.0,0.40000000000000013 " />
			<path d="M-0.5349999999999997,0.40000000000000013 L-0.5349999999999997,1.5000000000000002 " />
			<path d="M-1.6564999999999996,1.5000000000000002 L-0.5349999999999997,1.5000000000000002 " />
			<path d="M-1.6564999999999996,1.5 L-1.6564999999999996,0.5000000000000002 " />
			<path d="M-1.8134999999999997,0.5000000000000002 L-1.6564999999999996,0.5000000000000002 " />
			<path d="M-1.8134999999999997,1.5 L-1.8134999999999997,0.5000000000000002 " />
			<path d="M-1.7984999999999998,0.5000000000000002 L-1.7984999999999998,5.5 " />
			<path d="M-1.6714999999999995,0.5000000000000002 L-1.6714999999999995,5.5 " />
			<path d="M-1.7984999999999998,0.5000000000000002 L-1.6714999999999995,0.5000000000000002 " />
			<path d="M-44.0,31.2 L-44.0,64.0 " />
			<path d="M-44.0,31.2 L-22.0,31.2 " />
			<path d="M-22.0,31.2 L-22.0,64.0 " />
			<path d="M-22.0,64.0 L-22.0,70.0 " />
			<path d="M-54.0,64.0 L-22.0,64.0 " />
			<path d="M-54.0,70.0 L-22.0,70.0 " />
			<path d="M-54.0,64.0 L-54.0,70.0 " />
			<path d="M-22.3,38.5 L-22.303963092376083,38.61601210271994 L-22.315833891738237,38.73148330346362 L-22.33555705094005,38.84587522218948 L-22.36304061150874,38.958654510966944 L-22.398156432398004,39.06929534069068 L-22.44074078744073,39.17728185273861 L-22.490595128715963,39.28211056414296 L-22.54748701227097,39.383292715060236 L-22.61115118188225,39.48035654759527 L-22.681290805802487,39.57284950535429 L-22.75757886072719,39.66034034347171 L-22.839659656528287,39.742421139272814 L-22.92715049464571,39.81870919419751 L-23.019643452404726,39.88884881811775 L-23.116707284939764,39.95251298772903 L-23.217889435857042,40.00940487128404 L-23.32271814726139,40.05925921255927 L-23.430704659309324,40.101843567601996 L-23.54134548903306,40.136959388491256 L-23.654124777810523,40.164442949059946 L-23.76851669653638,40.18416610826176 L-23.883987897280058,40.19603690762391 L-24.0,40.2 L-24.11601210271994,40.19603690762392 L-24.23148330346362,40.18416610826176 L-24.345875222189477,40.164442949059946 L-24.45865451096694,40.136959388491256 L-24.569295340690676,40.101843567601996 L-24.67728185273861,40.05925921255927 L-24.782110564142958,40.00940487128404 L-24.883292715060236,39.95251298772903 L-24.980356547595274,39.88884881811775 L-25.07284950535429,39.81870919419752 L-25.160340343471713,39.742421139272814 L-25.24242113927281,39.66034034347171 L-25.318709194197513,39.57284950535429 L-25.38884881811775,39.48035654759527 L-25.45251298772903,39.383292715060236 L-25.50940487128404,39.282110564142954 L-25.559259212559272,39.17728185273861 L-25.601843567601996,39.06929534069067 L-25.63695938849126,38.95865451096694 L-25.66444294905995,38.84587522218948 L-25.684166108261763,38.73148330346361 L-25.696036907623917,38.616012102719935 L-25.7,38.49999999999999 L-25.696036907623917,38.38398789728006 L-25.68416610826176,38.26851669653637 L-25.664442949059946,38.154124777810516 L-25.636959388491256,38.041345489033056 L-25.601843567601993,37.93070465930932 L-25.55925921255927,37.822718147261384 L-25.509404871284033,37.71788943585704 L-25.452512987729026,37.61670728493976 L-25.388848818117747,37.51964345240472 L-25.31870919419751,37.4271504946457 L-25.242421139272807,37.33965965652828 L-25.160340343471706,37.257578860727186 L-25.072849505354284,37.18129080580248 L-24.980356547595267,37.11115118188224 L-24.88329271506023,37.04748701227096 L-24.78211056414295,36.99059512871596 L-24.677281852738602,36.940740787440724 L-24.569295340690665,36.898156432398004 L-24.45865451096693,36.86304061150874 L-24.345875222189466,36.83555705094005 L-24.23148330346361,36.81583389173824 L-24.116012102719928,36.80396309237608 L-23.99999999999999,36.8 L-23.883987897280047,36.80396309237609 L-23.76851669653637,36.81583389173824 L-23.65412477781051,36.835557050940054 L-23.541345489033045,36.863040611508744 L-23.43070465930931,36.89815643239801 L-23.322718147261376,36.94074078744074 L-23.21788943585703,36.99059512871597 L-23.11670728493975,37.04748701227098 L-23.019643452404715,37.111151181882256 L-22.927150494645698,37.1812908058025 L-22.839659656528276,37.2575788607272 L-22.75757886072718,37.3396596565283 L-22.681290805802476,37.42715049464572 L-22.61115118188224,37.519643452404736 L-22.54748701227096,37.61670728493978 L-22.490595128715956,37.71788943585705 L-22.440740787440724,37.822718147261405 L-22.398156432398,37.93070465930934 L-22.363040611508737,38.04134548903308 L-22.335557050940047,38.15412477781054 L-22.315833891738237,38.2685166965364 L-22.303963092376083,38.38398789728008 L-22.3,38.50000000000002 " />
			<path d="M-34.3,38.5 L-34.30396309237609,38.61601210271994 L-34.31583389173824,38.73148330346362 L-34.335557050940054,38.84587522218948 L-34.363040611508744,38.958654510966944 L-34.398156432398004,39.06929534069068 L-34.44074078744073,39.17728185273861 L-34.49059512871596,39.28211056414296 L-34.54748701227097,39.383292715060236 L-34.61115118188225,39.48035654759527 L-34.68129080580248,39.57284950535429 L-34.757578860727186,39.66034034347171 L-34.83965965652829,39.742421139272814 L-34.92715049464571,39.81870919419751 L-35.01964345240472,39.88884881811775 L-35.116707284939764,39.95251298772903 L-35.21788943585704,40.00940487128404 L-35.32271814726139,40.05925921255927 L-35.43070465930932,40.101843567601996 L-35.541345489033056,40.136959388491256 L-35.65412477781052,40.164442949059946 L-35.76851669653638,40.18416610826176 L-35.88398789728006,40.19603690762391 L-36.0,40.2 L-36.11601210271994,40.19603690762392 L-36.23148330346362,40.18416610826176 L-36.34587522218948,40.164442949059946 L-36.45865451096694,40.136959388491256 L-36.56929534069067,40.101843567601996 L-36.67728185273861,40.05925921255927 L-36.78211056414296,40.00940487128404 L-36.883292715060236,39.95251298772903 L-36.98035654759527,39.88884881811775 L-37.07284950535429,39.81870919419752 L-37.16034034347171,39.742421139272814 L-37.242421139272814,39.66034034347171 L-37.31870919419752,39.57284950535429 L-37.38884881811775,39.48035654759527 L-37.45251298772903,39.383292715060236 L-37.50940487128404,39.282110564142954 L-37.55925921255927,39.17728185273861 L-37.601843567601996,39.06929534069067 L-37.63695938849126,38.95865451096694 L-37.664442949059946,38.84587522218948 L-37.68416610826176,38.73148330346361 L-37.69603690762392,38.616012102719935 L-37.7,38.49999999999999 L-37.69603690762391,38.38398789728006 L-37.68416610826176,38.26851669653637 L-37.664442949059946,38.154124777810516 L-37.636959388491256,38.041345489033056 L-37.60184356760199,37.93070465930932 L-37.55925921255927,37.822718147261384 L-37.50940487128403,37.71788943585704 L-37.45251298772903,37.61670728493976 L-37.38884881811775,37.51964345240472 L-37.31870919419751,37.4271504946457 L-37.24242113927281,37.33965965652828 L-37.1603403434717,37.257578860727186 L-37.072849505354284,37.18129080580248 L-36.980356547595264,37.11115118188224 L-36.88329271506023,37.04748701227096 L-36.78211056414295,36.99059512871596 L-36.6772818527386,36.940740787440724 L-36.569295340690665,36.898156432398004 L-36.45865451096693,36.86304061150874 L-36.34587522218947,36.83555705094005 L-36.231483303463605,36.81583389173824 L-36.11601210271993,36.80396309237608 L-35.999999999999986,36.8 L-35.88398789728005,36.80396309237609 L-35.768516696536366,36.81583389173824 L-35.65412477781051,36.835557050940054 L-35.54134548903305,36.863040611508744 L-35.43070465930931,36.89815643239801 L-35.32271814726138,36.94074078744074 L-35.21788943585703,36.99059512871597 L-35.11670728493975,37.04748701227098 L-35.019643452404715,37.111151181882256 L-34.9271504946457,37.1812908058025 L-34.839659656528276,37.2575788607272 L-34.75757886072718,37.3396596565283 L-34.681290805802476,37.42715049464572 L-34.61115118188224,37.519643452404736 L-34.54748701227096,37.61670728493978 L-34.49059512871595,37.71788943585705 L-34.440740787440724,37.822718147261405 L-34.398156432398,37.93070465930934 L-34.36304061150874,38.04134548903308 L-34.33555705094005,38.15412477781054 L-34.31583389173824,38.2685166965364 L-34.30396309237608,38.38398789728008 L-34.3,38.50000000000002 " />
			<path d="M-40.0,25.2 L-40.0,31.2 " />
			<path d="M-40.0,25.2 L-20.0,25.2 " />
			<path d="M-20.0,25.2 L-20.0,64.0 " />
			<path d="M-34.7,38.5 L-34.70390917648187,38.60074014687351 L-34.71561319568015,38.700874430650195 L-34.73504166824623,38.79980063196517 L-34.76207774906006,38.896923797003645 L-34.79655883995044,38.99165981562314 L-34.83827756757957,39.0834389342606 L-34.88698303061065,39.17170918249742 L-34.94238230865814,39.25593969267443 L-35.00414222394533,39.3356238925925 L-35.07189134507473,39.41028255209732 L-35.14522222086022,39.47946666522596 L-35.22369383078638,39.54276015058156 L-35.3068342373578,39.599782353695794 L-35.3941434243867,39.65019033632966 L-35.485096304149096,39.693680938944354 L-35.57914587532418,39.72999260393848 L-35.67572651272462,39.758906948686146 L-35.77425736903299,39.78025007891587 L-35.87414586808587,39.793893634531116 L-35.97479126869663,39.799755561583055 L-36.07558827758362,39.79780060575265 L-36.17593068967517,39.788040524374296 L-36.275215033898235,39.77053401572583 L-36.37284420252442,39.74538636601014 L-36.468231042246124,39.7127488161516 L-36.56080188538563,39.67281765221535 L-36.65,39.62583302491977 L-36.7352889381325,39.57207750534184 L-36.81615576207373,39.51187438550141 L-36.892114129229356,39.44558573404496 L-36.962707217041704,39.37361021872218 L-37.02751047037439,39.296380708751165 L-37.08613415483682,39.21436167149205 L-37.138225700692715,39.12804637908563 L-37.18347182325599,39.03795394185668 L-37.22160040702168,38.94462618632337 L-37.252382142200645,38.84862439658883 L-37.2756319038156,38.750525938712514 L-37.29120986506452,38.6509207883628 L-37.2990223382555,38.550407982633864 L-37.2990223382555,38.449592017366136 L-37.29120986506452,38.3490792116372 L-37.2756319038156,38.249474061287486 L-37.252382142200645,38.151375603411175 L-37.22160040702168,38.05537381367663 L-37.18347182325599,37.96204605814332 L-37.138225700692715,37.87195362091437 L-37.08613415483682,37.78563832850795 L-37.02751047037439,37.703619291248835 L-36.962707217041704,37.62638978127782 L-36.892114129229356,37.55441426595504 L-36.81615576207373,37.48812561449859 L-36.7352889381325,37.42792249465816 L-36.65,37.37416697508023 L-36.56080188538563,37.32718234778465 L-36.468231042246124,37.2872511838484 L-36.37284420252442,37.25461363398986 L-36.275215033898235,37.22946598427417 L-36.17593068967517,37.211959475625704 L-36.07558827758362,37.20219939424735 L-35.97479126869663,37.200244438416945 L-35.87414586808587,37.206106365468884 L-35.77425736903299,37.21974992108413 L-35.67572651272462,37.241093051313854 L-35.57914587532418,37.27000739606152 L-35.485096304149096,37.306319061055646 L-35.3941434243867,37.34980966367034 L-35.306834237357805,37.400217646304206 L-35.22369383078638,37.45723984941844 L-35.14522222086022,37.52053333477404 L-35.07189134507473,37.58971744790268 L-35.00414222394533,37.6643761074075 L-34.94238230865814,37.74406030732556 L-34.88698303061065,37.82829081750258 L-34.83827756757957,37.9165610657394 L-34.79655883995044,38.00834018437686 L-34.76207774906006,38.103076202996355 L-34.73504166824623,38.20019936803483 L-34.71561319568015,38.299125569349805 L-34.70390917648187,38.39925985312649 L-34.7,38.5 " />
			<path d="M-22.7,38.5 L-22.703909176481872,38.60074014687351 L-22.71561319568015,38.700874430650195 L-22.73504166824623,38.79980063196517 L-22.76207774906006,38.896923797003645 L-22.796558839950443,38.99165981562314 L-22.838277567579564,39.0834389342606 L-22.886983030610654,39.17170918249742 L-22.942382308658143,39.25593969267443 L-23.00414222394533,39.3356238925925 L-23.071891345074732,39.41028255209732 L-23.145222220860216,39.47946666522596 L-23.223693830786377,39.54276015058156 L-23.3068342373578,39.599782353695794 L-23.394143424386698,39.65019033632966 L-23.485096304149096,39.693680938944354 L-23.579145875324183,39.72999260393848 L-23.675726512724623,39.758906948686146 L-23.77425736903299,39.78025007891587 L-23.87414586808587,39.793893634531116 L-23.974791268696627,39.799755561583055 L-24.07558827758362,39.79780060575265 L-24.17593068967517,39.788040524374296 L-24.275215033898235,39.77053401572583 L-24.372844202524416,39.74538636601014 L-24.468231042246124,39.7127488161516 L-24.56080188538563,39.67281765221535 L-24.65,39.62583302491977 L-24.7352889381325,39.57207750534184 L-24.816155762073727,39.51187438550141 L-24.892114129229352,39.44558573404496 L-24.962707217041707,39.37361021872218 L-25.027510470374388,39.296380708751165 L-25.086134154836817,39.21436167149205 L-25.13822570069272,39.12804637908563 L-25.183471823255992,39.03795394185668 L-25.221600407021683,38.94462618632337 L-25.252382142200645,38.84862439658883 L-25.2756319038156,38.750525938712514 L-25.291209865064527,38.6509207883628 L-25.299022338255497,38.550407982633864 L-25.299022338255497,38.449592017366136 L-25.291209865064527,38.3490792116372 L-25.2756319038156,38.249474061287486 L-25.252382142200645,38.151375603411175 L-25.221600407021683,38.05537381367663 L-25.183471823255992,37.96204605814332 L-25.13822570069272,37.87195362091437 L-25.086134154836817,37.78563832850795 L-25.027510470374388,37.703619291248835 L-24.962707217041707,37.62638978127782 L-24.892114129229356,37.55441426595504 L-24.816155762073727,37.48812561449859 L-24.735288938132502,37.42792249465816 L-24.650000000000002,37.37416697508023 L-24.56080188538563,37.32718234778465 L-24.468231042246124,37.2872511838484 L-24.37284420252442,37.25461363398986 L-24.275215033898235,37.22946598427417 L-24.17593068967517,37.211959475625704 L-24.07558827758362,37.20219939424735 L-23.974791268696627,37.200244438416945 L-23.87414586808587,37.206106365468884 L-23.77425736903299,37.21974992108413 L-23.675726512724626,37.241093051313854 L-23.579145875324183,37.27000739606152 L-23.485096304149096,37.306319061055646 L-23.3941434243867,37.34980966367034 L-23.3068342373578,37.400217646304206 L-23.223693830786377,37.45723984941844 L-23.145222220860216,37.52053333477404 L-23.071891345074732,37.58971744790268 L-23.00414222394533,37.6643761074075 L-22.942382308658143,37.74406030732556 L-22.886983030610654,37.82829081750258 L-22.838277567579564,37.9165610657394 L-22.796558839950443,38.00834018437686 L-22.76207774906006,38.103076202996355 L-22.73504166824623,38.20019936803483 L-22.71561319568015,38.299125569349805 L-22.703909176481872,38.39925985312649 L-22.7,38.5 " />
			<path d="M-38.0,11.0 L-38.0,25.2 " />
			<path d="M-38.0,11.0 L-34.0,11.0 " />
			<path d="M-34.0,11.0 L-34.0,25.2 " />
			<path d="M-26.0,11.0 L-26.0,25.2 " />
			<path d="M-26.0,11.0 L-22.0,11.0 " />
			<path d="M-22.0,11.0 L-22.0,25.2 " />
			<path d="M0.0,0.0 L0.0,0.5 " />
			<path d="M10.0,0.0 L10.0,0.5 " />
			<path d="M0.0,0.0 L10.0,0.0 " />
			<path d="M0.0,0.5 L10.0,0.5 " />
			<path d="M-4.0,-4.5 L-4.0,-1.5 " />
			<path d="M-4.0,-4.5 L14.0,-4.5 " />
			<path d="M14.0,-4.5 L14.0,-1.5 " />
			<path d="M-4.0,-1.5 L14.0,-1.5 " />
			<path d="M0.0,-1.5 L0.0,0.0 " />
			<path d="M10.0,-1.5 L10.0,0.0 " />

       </g>
    </g>
    
</svg>
