ISO-10303-21;
HEADER;
FILE_DESCRIPTION (( 'STEP AP214' ),
    '1' );
FILE_NAME ('10775-E0W.step',
    '2007-10-24T23:28:39',
    ( ' ' ),
    ( ' ' ),
    'SwSTEP 2.0',
    'SolidWorks 2007',
    '' );
FILE_SCHEMA (( 'AUTOMOTIVE_DESIGN' ));
ENDSEC;

DATA;
#1 = DIRECTION ( 'NONE',  ( 0.0000000000000000000, 0.0000000000000000000, 1.000000000000000000 ) ) ;
#2 = ORIENTED_EDGE ( 'NONE', *, *, #3, .T. ) ;
#3 = EDGE_CURVE ( 'NONE', #73, #45, #144, .T. ) ;
#4 = ADVANCED_FACE ( 'NONE', ( #145 ), #174, .T. ) ;
#5 = ORIENTED_EDGE ( 'NONE', *, *, #41, .T. ) ;
#6 = EDGE_CURVE ( 'NONE', #7, #9, #169, .T. ) ;
#7 = VERTEX_POINT ( 'NONE', #165 ) ;
#8 = ORIENTED_EDGE ( 'NONE', *, *, #6, .F. ) ;
#9 = VERTEX_POINT ( 'NONE', #164 ) ;
#10 = ORIENTED_EDGE ( 'NONE', *, *, #61, .F. ) ;
#11 = ADVANCED_FACE ( 'NONE', ( #163 ), #200, .F. ) ;
#12 = EDGE_LOOP ( 'NONE', ( #13, #17, #76, #79 ) ) ;
#13 = ORIENTED_EDGE ( 'NONE', *, *, #14, .F. ) ;
#14 = EDGE_CURVE ( 'NONE', #15, #16, #196, .T. ) ;
#15 = VERTEX_POINT ( 'NONE', #192 ) ;
#16 = VERTEX_POINT ( 'NONE', #191 ) ;
#17 = ORIENTED_EDGE ( 'NONE', *, *, #18, .T. ) ;
#18 = EDGE_CURVE ( 'NONE', #15, #19, #190, .T. ) ;
#19 = VERTEX_POINT ( 'NONE', #186 ) ;
#20 = ORIENTED_EDGE ( 'NONE', *, *, #21, .T. ) ;
#21 = EDGE_CURVE ( 'NONE', #33, #22, #185, .T. ) ;
#22 = VERTEX_POINT ( 'NONE', #181 ) ;
#23 = EDGE_CURVE ( 'NONE', #9, #43, #180, .T. ) ;
#24 = ORIENTED_EDGE ( 'NONE', *, *, #23, .F. ) ;
#25 = EDGE_CURVE ( 'NONE', #7, #33, #232, .T. ) ;
#26 = ORIENTED_EDGE ( 'NONE', *, *, #6, .T. ) ;
#27 = ORIENTED_EDGE ( 'NONE', *, *, #23, .T. ) ;
#28 = ORIENTED_EDGE ( 'NONE', *, *, #29, .T. ) ;
#29 = EDGE_CURVE ( 'NONE', #43, #33, #227, .T. ) ;
#30 = EDGE_LOOP ( 'NONE', ( #35, #37 ) ) ;
#31 = ADVANCED_FACE ( 'NONE', ( #222, #221 ), #261, .T. ) ;
#32 = ORIENTED_EDGE ( 'NONE', *, *, #25, .F. ) ;
#33 = VERTEX_POINT ( 'NONE', #256 ) ;
#34 = EDGE_LOOP ( 'NONE', ( #32, #26, #27, #28 ) ) ;
#35 = ORIENTED_EDGE ( 'NONE', *, *, #36, .F. ) ;
#36 = EDGE_CURVE ( 'NONE', #78, #19, #254, .T. ) ;
#37 = ORIENTED_EDGE ( 'NONE', *, *, #77, .F. ) ;
#38 = ADVANCED_FACE ( 'NONE', ( #255 ), #290, .F. ) ;
#39 = EDGE_LOOP ( 'NONE', ( #40, #20, #50, #52, #54 ) ) ;
#40 = ORIENTED_EDGE ( 'NONE', *, *, #25, .T. ) ;
#41 = EDGE_CURVE ( 'NONE', #7, #72, #285, .T. ) ;
#42 = ORIENTED_EDGE ( 'NONE', *, *, #75, .F. ) ;
#43 = VERTEX_POINT ( 'NONE', #281 ) ;
#44 = EDGE_LOOP ( 'NONE', ( #42, #2, #46, #24 ) ) ;
#45 = VERTEX_POINT ( 'NONE', #280 ) ;
#46 = ORIENTED_EDGE ( 'NONE', *, *, #47, .T. ) ;
#47 = EDGE_CURVE ( 'NONE', #45, #43, #279, .T. ) ;
#48 = EDGE_CURVE ( 'NONE', #89, #65, #275, .T. ) ;
#49 = ORIENTED_EDGE ( 'NONE', *, *, #64, .T. ) ;
#50 = ORIENTED_EDGE ( 'NONE', *, *, #51, .T. ) ;
#51 = EDGE_CURVE ( 'NONE', #22, #62, #270, .T. ) ;
#52 = ORIENTED_EDGE ( 'NONE', *, *, #53, .T. ) ;
#53 = EDGE_CURVE ( 'NONE', #62, #72, #266, .T. ) ;
#54 = ORIENTED_EDGE ( 'NONE', *, *, #41, .F. ) ;
#55 = ADVANCED_FACE ( 'NONE', ( #316 ), #296, .T. ) ;
#56 = EDGE_LOOP ( 'NONE', ( #57, #58, #60, #112 ) ) ;
#57 = ORIENTED_EDGE ( 'NONE', *, *, #47, .F. ) ;
#58 = ORIENTED_EDGE ( 'NONE', *, *, #59, .T. ) ;
#59 = EDGE_CURVE ( 'NONE', #45, #22, #292, .T. ) ;
#60 = ORIENTED_EDGE ( 'NONE', *, *, #21, .F. ) ;
#61 = EDGE_CURVE ( 'NONE', #62, #89, #348, .T. ) ;
#62 = VERTEX_POINT ( 'NONE', #343 ) ;
#63 = ORIENTED_EDGE ( 'NONE', *, *, #64, .F. ) ;
#64 = EDGE_CURVE ( 'NONE', #65, #62, #342, .T. ) ;
#65 = VERTEX_POINT ( 'NONE', #337 ) ;
#66 = ORIENTED_EDGE ( 'NONE', *, *, #67, .F. ) ;
#67 = EDGE_CURVE ( 'NONE', #85, #65, #335, .T. ) ;
#68 = ADVANCED_FACE ( 'NONE', ( #331 ), #369, .T. ) ;
#69 = EDGE_LOOP ( 'NONE', ( #70, #74, #8, #5 ) ) ;
#70 = ORIENTED_EDGE ( 'NONE', *, *, #71, .T. ) ;
#71 = EDGE_CURVE ( 'NONE', #72, #73, #365, .T. ) ;
#72 = VERTEX_POINT ( 'NONE', #361 ) ;
#73 = VERTEX_POINT ( 'NONE', #360 ) ;
#74 = ORIENTED_EDGE ( 'NONE', *, *, #75, .T. ) ;
#75 = EDGE_CURVE ( 'NONE', #73, #9, #359, .T. ) ;
#76 = ORIENTED_EDGE ( 'NONE', *, *, #77, .T. ) ;
#77 = EDGE_CURVE ( 'NONE', #19, #78, #355, .T. ) ;
#78 = VERTEX_POINT ( 'NONE', #400 ) ;
#79 = ORIENTED_EDGE ( 'NONE', *, *, #80, .F. ) ;
#80 = EDGE_CURVE ( 'NONE', #16, #78, #398, .T. ) ;
#81 = ADVANCED_FACE ( 'NONE', ( #394 ), #375, .T. ) ;
#82 = EDGE_LOOP ( 'NONE', ( #83, #87, #10, #63, #66 ) ) ;
#83 = ORIENTED_EDGE ( 'NONE', *, *, #84, .T. ) ;
#84 = EDGE_CURVE ( 'NONE', #85, #86, #433, .T. ) ;
#85 = VERTEX_POINT ( 'NONE', #425 ) ;
#86 = VERTEX_POINT ( 'NONE', #424 ) ;
#87 = ORIENTED_EDGE ( 'NONE', *, *, #88, .T. ) ;
#88 = EDGE_CURVE ( 'NONE', #86, #89, #423, .T. ) ;
#89 = VERTEX_POINT ( 'NONE', #419 ) ;
#90 = ORIENTED_EDGE ( 'NONE', *, *, #84, .F. ) ;
#91 = ORIENTED_EDGE ( 'NONE', *, *, #103, .F. ) ;
#92 = ADVANCED_FACE ( 'NONE', ( #418 ), #453, .F. ) ;
#93 = EDGE_LOOP ( 'NONE', ( #94, #95, #96, #97 ) ) ;
#94 = ORIENTED_EDGE ( 'NONE', *, *, #18, .F. ) ;
#95 = ORIENTED_EDGE ( 'NONE', *, *, #109, .F. ) ;
#96 = ORIENTED_EDGE ( 'NONE', *, *, #80, .T. ) ;
#97 = ORIENTED_EDGE ( 'NONE', *, *, #36, .T. ) ;
#98 = OPEN_SHELL ( 'NONE', ( #11, #81, #68, #4, #31, #38, #55, #113, #99, #106, #92 ) ) ;
#99 = ADVANCED_FACE ( 'NONE', ( #449 ), #484, .T. ) ;
#100 = EDGE_LOOP ( 'NONE', ( #101, #102, #104, #105 ) ) ;
#101 = ORIENTED_EDGE ( 'NONE', *, *, #88, .F. ) ;
#102 = ORIENTED_EDGE ( 'NONE', *, *, #103, .T. ) ;
#103 = EDGE_CURVE ( 'NONE', #86, #85, #479, .T. ) ;
#104 = ORIENTED_EDGE ( 'NONE', *, *, #67, .T. ) ;
#105 = ORIENTED_EDGE ( 'NONE', *, *, #48, .F. ) ;
#106 = ADVANCED_FACE ( 'NONE', ( #475, #474 ), #513, .T. ) ;
#107 = EDGE_LOOP ( 'NONE', ( #108, #110 ) ) ;
#108 = ORIENTED_EDGE ( 'NONE', *, *, #109, .T. ) ;
#109 = EDGE_CURVE ( 'NONE', #16, #15, #507, .T. ) ;
#110 = ORIENTED_EDGE ( 'NONE', *, *, #14, .T. ) ;
#111 = EDGE_LOOP ( 'NONE', ( #90, #91 ) ) ;
#112 = ORIENTED_EDGE ( 'NONE', *, *, #29, .F. ) ;
#113 = ADVANCED_FACE ( 'NONE', ( #502 ), #527, .T. ) ;
#114 = EDGE_LOOP ( 'NONE', ( #115, #116, #117, #118, #119, #120, #121, #49 ) ) ;
#115 = ORIENTED_EDGE ( 'NONE', *, *, #51, .F. ) ;
#116 = ORIENTED_EDGE ( 'NONE', *, *, #59, .F. ) ;
#117 = ORIENTED_EDGE ( 'NONE', *, *, #3, .F. ) ;
#118 = ORIENTED_EDGE ( 'NONE', *, *, #71, .F. ) ;
#119 = ORIENTED_EDGE ( 'NONE', *, *, #53, .F. ) ;
#120 = ORIENTED_EDGE ( 'NONE', *, *, #61, .T. ) ;
#121 = ORIENTED_EDGE ( 'NONE', *, *, #48, .T. ) ;
#122 =( GEOMETRIC_REPRESENTATION_CONTEXT ( 3 ) GLOBAL_UNCERTAINTY_ASSIGNED_CONTEXT ( ( #123 ) ) GLOBAL_UNIT_ASSIGNED_CONTEXT ( ( #126, #125, #124 ) ) REPRESENTATION_CONTEXT ( 'NONE', 'WORKASPACE' ) );
#123 = UNCERTAINTY_MEASURE_WITH_UNIT (LENGTH_MEASURE( 1.000000000000000100E-005 ), #126, 'distance_accuracy_value', 'NONE');
#124 =( NAMED_UNIT ( * ) SI_UNIT ( $, .STERADIAN. ) SOLID_ANGLE_UNIT ( ) );
#125 =( NAMED_UNIT ( * ) PLANE_ANGLE_UNIT ( ) SI_UNIT ( $, .RADIAN. ) );
#126 =( CONVERSION_BASED_UNIT ( 'INCH', #127 ) LENGTH_UNIT ( ) NAMED_UNIT ( #128 ) );
#127 = LENGTH_MEASURE_WITH_UNIT ( LENGTH_MEASURE( 0.02539999999999999900 ), #129 );
#128 = DIMENSIONAL_EXPONENTS ( 1.000000000000000000, 0.0000000000000000000, 0.0000000000000000000, 0.0000000000000000000, 0.0000000000000000000, 0.0000000000000000000, 0.0000000000000000000 ) ;
#129 =( LENGTH_UNIT ( ) NAMED_UNIT ( * ) SI_UNIT ( $, .METRE. ) );
#130 = MECHANICAL_DESIGN_GEOMETRIC_PRESENTATION_REPRESENTATION (  '', ( #132 ), #122 ) ;
#131 = PRESENTATION_LAYER_ASSIGNMENT (  '', '', ( #132 ) ) ;
#132 = STYLED_ITEM ( 'NONE', ( #133 ), #4 ) ;
#133 = PRESENTATION_STYLE_ASSIGNMENT (( #134 ) ) ;
#134 = SURFACE_STYLE_USAGE ( .BOTH. , #135 ) ;
#135 = SURFACE_SIDE_STYLE ('',( #136 ) ) ;
#136 = SURFACE_STYLE_FILL_AREA ( #137 ) ;
#137 = FILL_AREA_STYLE ('',( #138 ) ) ;
#138 = FILL_AREA_STYLE_COLOUR ( '', #139 ) ;
#139 = COLOUR_RGB ( '',0.7529411764705882200, 0.7529411764705882200, 0.7529411764705882200 ) ;
#140 = DIRECTION ( 'NONE',  ( 0.0000000000000000000, 0.0000000000000000000, 1.000000000000000000 ) ) ;
#141 = DIRECTION ( 'NONE',  ( 0.0000000000000000000, 1.000000000000000000, 0.0000000000000000000 ) ) ;
#142 = CARTESIAN_POINT ( 'NONE',  ( 0.009029061308122938300, 0.007310092281125131700, -0.04985205707922919800 ) ) ;
#143 = AXIS2_PLACEMENT_3D ( 'NONE', #142, #141, #140 ) ;
#144 = CIRCLE ( 'NONE', #143, 0.2066929133858268200 ) ;
#145 = FACE_OUTER_BOUND ( 'NONE', #44, .T. ) ;
#146 = UNCERTAINTY_MEASURE_WITH_UNIT (LENGTH_MEASURE( 1.000000000000000100E-005 ), #149, 'distance_accuracy_value', 'NONE');
#147 =( NAMED_UNIT ( * ) SI_UNIT ( $, .STERADIAN. ) SOLID_ANGLE_UNIT ( ) );
#148 =( NAMED_UNIT ( * ) PLANE_ANGLE_UNIT ( ) SI_UNIT ( $, .RADIAN. ) );
#149 =( CONVERSION_BASED_UNIT ( 'INCH', #150 ) LENGTH_UNIT ( ) NAMED_UNIT ( #151 ) );
#150 = LENGTH_MEASURE_WITH_UNIT ( LENGTH_MEASURE( 0.02539999999999999900 ), #152 );
#151 = DIMENSIONAL_EXPONENTS ( 1.000000000000000000, 0.0000000000000000000, 0.0000000000000000000, 0.0000000000000000000, 0.0000000000000000000, 0.0000000000000000000, 0.0000000000000000000 ) ;
#152 =( LENGTH_UNIT ( ) NAMED_UNIT ( * ) SI_UNIT ( $, .METRE. ) );
#153 = MECHANICAL_DESIGN_GEOMETRIC_PRESENTATION_REPRESENTATION (  '', ( #155 ), #203 ) ;
#154 = PRESENTATION_LAYER_ASSIGNMENT (  '', '', ( #155 ) ) ;
#155 = STYLED_ITEM ( 'NONE', ( #156 ), #11 ) ;
#156 = PRESENTATION_STYLE_ASSIGNMENT (( #157 ) ) ;
#157 = SURFACE_STYLE_USAGE ( .BOTH. , #158 ) ;
#158 = SURFACE_SIDE_STYLE ('',( #159 ) ) ;
#159 = SURFACE_STYLE_FILL_AREA ( #160 ) ;
#160 = FILL_AREA_STYLE ('',( #161 ) ) ;
#161 = FILL_AREA_STYLE_COLOUR ( '', #162 ) ;
#162 = COLOUR_RGB ( '',0.7529411764705882200, 0.7529411764705882200, 0.7529411764705882200 ) ;
#163 = FACE_OUTER_BOUND ( 'NONE', #12, .T. ) ;
#164 = CARTESIAN_POINT ( 'NONE',  ( 0.009029061308122962600, 0.06636521039136134000, -0.2565449704650560300 ) ) ;
#165 = CARTESIAN_POINT ( 'NONE',  ( 0.08624113818273565500, 0.06636521039136134000, -0.2415816990979577600 ) ) ;
#166 = DIRECTION ( 'NONE',  ( 0.0000000000000000000, 0.0000000000000000000, 1.000000000000000000 ) ) ;
#167 = DIRECTION ( 'NONE',  ( 0.0000000000000000000, 1.000000000000000000, 0.0000000000000000000 ) ) ;
#168 = AXIS2_PLACEMENT_3D ( 'NONE', #175, #167, #166 ) ;
#169 = CIRCLE ( 'NONE', #168, 0.2066929133858268200 ) ;
#170 = DIRECTION ( 'NONE',  ( 0.0000000000000000000, 0.0000000000000000000, 1.000000000000000000 ) ) ;
#171 = DIRECTION ( 'NONE',  ( 0.0000000000000000000, 1.000000000000000000, 0.0000000000000000000 ) ) ;
#172 = CARTESIAN_POINT ( 'NONE',  ( 0.009029061308122938300, 0.06636521039136134000, -0.04985205707922919800 ) ) ;
#173 = AXIS2_PLACEMENT_3D ( 'NONE', #172, #171, #170 ) ;
#174 = CYLINDRICAL_SURFACE ( 'NONE', #173, 0.2066929133858268200 ) ;
#175 = CARTESIAN_POINT ( 'NONE',  ( 0.009029061308122938300, 0.06636521039136134000, -0.04985205707922919800 ) ) ;
#176 = DIRECTION ( 'NONE',  ( 0.0000000000000000000, 0.0000000000000000000, 1.000000000000000000 ) ) ;
#177 = DIRECTION ( 'NONE',  ( 0.0000000000000000000, 1.000000000000000000, 0.0000000000000000000 ) ) ;
#178 = CARTESIAN_POINT ( 'NONE',  ( 0.009029061308122938300, 0.06636521039136134000, -0.04985205707922919800 ) ) ;
#179 = AXIS2_PLACEMENT_3D ( 'NONE', #178, #177, #176 ) ;
#180 = CIRCLE ( 'NONE', #179, 0.2066929133858268200 ) ;
#181 = CARTESIAN_POINT ( 'NONE',  ( 0.2002432548953753900, 0.007310092281125131700, 0.02862782960963939800 ) ) ;
#182 = DIRECTION ( 'NONE',  ( 0.0000000000000000000, -1.000000000000000000, 0.0000000000000000000 ) ) ;
#183 = VECTOR ( 'NONE', #182, 39.37007874015748100 ) ;
#184 = CARTESIAN_POINT ( 'NONE',  ( 0.2002432548953753900, 0.4010108796826999400, 0.02862782960963939800 ) ) ;
#185 = LINE ( 'NONE', #184, #183 ) ;
#186 = CARTESIAN_POINT ( 'NONE',  ( 0.009029061308122947000, 0.06636521039136134000, -0.1246552066855284000 ) ) ;
#187 = DIRECTION ( 'NONE',  ( 0.0000000000000000000, 1.000000000000000000, 0.0000000000000000000 ) ) ;
#188 = VECTOR ( 'NONE', #187, 39.37007874015748100 ) ;
#189 = CARTESIAN_POINT ( 'NONE',  ( 0.009029061308122947000, 0.06636521039136134000, -0.1246552066855284000 ) ) ;
#190 = LINE ( 'NONE', #189, #188 ) ;
#191 = CARTESIAN_POINT ( 'NONE',  ( 0.009029061308122938300, -0.09898912031730010300, 0.02495109252707002100 ) ) ;
#192 = CARTESIAN_POINT ( 'NONE',  ( 0.009029061308122947000, -0.09898912031730010300, -0.1246552066855284000 ) ) ;
#193 = DIRECTION ( 'NONE',  ( 0.0000000000000000000, 0.0000000000000000000, 1.000000000000000000 ) ) ;
#194 = DIRECTION ( 'NONE',  ( 0.0000000000000000000, 1.000000000000000000, 0.0000000000000000000 ) ) ;
#195 = AXIS2_PLACEMENT_3D ( 'NONE', #201, #194, #193 ) ;
#196 = CIRCLE ( 'NONE', #195, 0.07480314960629921800 ) ;
#197 = DIRECTION ( 'NONE',  ( 0.0000000000000000000, 0.0000000000000000000, 1.000000000000000000 ) ) ;
#198 = DIRECTION ( 'NONE',  ( 0.0000000000000000000, 1.000000000000000000, 0.0000000000000000000 ) ) ;
#199 = AXIS2_PLACEMENT_3D ( 'NONE', #202, #198, #197 ) ;
#200 = CYLINDRICAL_SURFACE ( 'NONE', #199, 0.07480314960629921800 ) ;
#201 = CARTESIAN_POINT ( 'NONE',  ( 0.009029061308122938300, -0.09898912031730010300, -0.04985205707922919800 ) ) ;
#202 = CARTESIAN_POINT ( 'NONE',  ( 0.009029061308122938300, 0.06636521039136134000, -0.04985205707922919800 ) ) ;
#203 =( GEOMETRIC_REPRESENTATION_CONTEXT ( 3 ) GLOBAL_UNCERTAINTY_ASSIGNED_CONTEXT ( ( #146 ) ) GLOBAL_UNIT_ASSIGNED_CONTEXT ( ( #149, #148, #147 ) ) REPRESENTATION_CONTEXT ( 'NONE', 'WORKASPACE' ) );
#204 =( GEOMETRIC_REPRESENTATION_CONTEXT ( 3 ) GLOBAL_UNCERTAINTY_ASSIGNED_CONTEXT ( ( #205 ) ) GLOBAL_UNIT_ASSIGNED_CONTEXT ( ( #208, #207, #206 ) ) REPRESENTATION_CONTEXT ( 'NONE', 'WORKASPACE' ) );
#205 = UNCERTAINTY_MEASURE_WITH_UNIT (LENGTH_MEASURE( 1.000000000000000100E-005 ), #208, 'distance_accuracy_value', 'NONE');
#206 =( NAMED_UNIT ( * ) SI_UNIT ( $, .STERADIAN. ) SOLID_ANGLE_UNIT ( ) );
#207 =( NAMED_UNIT ( * ) PLANE_ANGLE_UNIT ( ) SI_UNIT ( $, .RADIAN. ) );
#208 =( CONVERSION_BASED_UNIT ( 'INCH', #209 ) LENGTH_UNIT ( ) NAMED_UNIT ( #210 ) );
#209 = LENGTH_MEASURE_WITH_UNIT ( LENGTH_MEASURE( 0.02539999999999999900 ), #211 );
#210 = DIMENSIONAL_EXPONENTS ( 1.000000000000000000, 0.0000000000000000000, 0.0000000000000000000, 0.0000000000000000000, 0.0000000000000000000, 0.0000000000000000000, 0.0000000000000000000 ) ;
#211 =( LENGTH_UNIT ( ) NAMED_UNIT ( * ) SI_UNIT ( $, .METRE. ) );
#212 = MECHANICAL_DESIGN_GEOMETRIC_PRESENTATION_REPRESENTATION (  '', ( #214 ), #204 ) ;
#213 = PRESENTATION_LAYER_ASSIGNMENT (  '', '', ( #214 ) ) ;
#214 = STYLED_ITEM ( 'NONE', ( #215 ), #31 ) ;
#215 = PRESENTATION_STYLE_ASSIGNMENT (( #216 ) ) ;
#216 = SURFACE_STYLE_USAGE ( .BOTH. , #217 ) ;
#217 = SURFACE_SIDE_STYLE ('',( #218 ) ) ;
#218 = SURFACE_STYLE_FILL_AREA ( #219 ) ;
#219 = FILL_AREA_STYLE ('',( #228 ) ) ;
#220 = COLOUR_RGB ( '',0.7529411764705882200, 0.7529411764705882200, 0.7529411764705882200 ) ;
#221 = FACE_BOUND ( 'NONE', #30, .T. ) ;
#222 = FACE_OUTER_BOUND ( 'NONE', #34, .T. ) ;
#223 = DIRECTION ( 'NONE',  ( 0.0000000000000000000, 0.0000000000000000000, 1.000000000000000000 ) ) ;
#224 = DIRECTION ( 'NONE',  ( 0.0000000000000000000, 1.000000000000000000, 0.0000000000000000000 ) ) ;
#225 = CARTESIAN_POINT ( 'NONE',  ( 0.009029061308122938300, 0.06636521039136134000, -0.04985205707922919800 ) ) ;
#226 = AXIS2_PLACEMENT_3D ( 'NONE', #225, #224, #223 ) ;
#227 = CIRCLE ( 'NONE', #226, 0.2066929133858268200 ) ;
#228 = FILL_AREA_STYLE_COLOUR ( '', #220 ) ;
#229 = DIRECTION ( 'NONE',  ( 0.3887221331592490800, 0.0000000000000000000, 0.9213550364501855700 ) ) ;
#230 = VECTOR ( 'NONE', #229, 39.37007874015748900 ) ;
#231 = CARTESIAN_POINT ( 'NONE',  ( 0.1545453187412195500, 0.06636521039136134000, -0.07968610479080194500 ) ) ;
#232 = LINE ( 'NONE', #231, #230 ) ;
#233 = UNCERTAINTY_MEASURE_WITH_UNIT (LENGTH_MEASURE( 1.000000000000000100E-005 ), #236, 'distance_accuracy_value', 'NONE');
#234 =( NAMED_UNIT ( * ) SI_UNIT ( $, .STERADIAN. ) SOLID_ANGLE_UNIT ( ) );
#235 =( NAMED_UNIT ( * ) PLANE_ANGLE_UNIT ( ) SI_UNIT ( $, .RADIAN. ) );
#236 =( CONVERSION_BASED_UNIT ( 'INCH', #237 ) LENGTH_UNIT ( ) NAMED_UNIT ( #238 ) );
#237 = LENGTH_MEASURE_WITH_UNIT ( LENGTH_MEASURE( 0.02539999999999999900 ), #239 );
#238 = DIMENSIONAL_EXPONENTS ( 1.000000000000000000, 0.0000000000000000000, 0.0000000000000000000, 0.0000000000000000000, 0.0000000000000000000, 0.0000000000000000000, 0.0000000000000000000 ) ;
#239 =( LENGTH_UNIT ( ) NAMED_UNIT ( * ) SI_UNIT ( $, .METRE. ) );
#240 = MECHANICAL_DESIGN_GEOMETRIC_PRESENTATION_REPRESENTATION (  '', ( #242 ), #291 ) ;
#241 = PRESENTATION_LAYER_ASSIGNMENT (  '', '', ( #242 ) ) ;
#242 = STYLED_ITEM ( 'NONE', ( #243 ), #38 ) ;
#243 = PRESENTATION_STYLE_ASSIGNMENT (( #244 ) ) ;
#244 = SURFACE_STYLE_USAGE ( .BOTH. , #245 ) ;
#245 = SURFACE_SIDE_STYLE ('',( #246 ) ) ;
#246 = SURFACE_STYLE_FILL_AREA ( #247 ) ;
#247 = FILL_AREA_STYLE ('',( #248 ) ) ;
#248 = FILL_AREA_STYLE_COLOUR ( '', #249 ) ;
#249 = COLOUR_RGB ( '',0.7529411764705882200, 0.7529411764705882200, 0.7529411764705882200 ) ;
#250 = DIRECTION ( 'NONE',  ( 0.0000000000000000000, 0.0000000000000000000, 1.000000000000000000 ) ) ;
#251 = DIRECTION ( 'NONE',  ( 0.0000000000000000000, 1.000000000000000000, 0.0000000000000000000 ) ) ;
#252 = CARTESIAN_POINT ( 'NONE',  ( 0.009029061308122938300, 0.06636521039136134000, -0.04985205707922919800 ) ) ;
#253 = AXIS2_PLACEMENT_3D ( 'NONE', #252, #251, #250 ) ;
#254 = CIRCLE ( 'NONE', #253, 0.07480314960629921800 ) ;
#255 = FACE_OUTER_BOUND ( 'NONE', #39, .T. ) ;
#256 = CARTESIAN_POINT ( 'NONE',  ( 0.2002432548953753900, 0.06636521039136134000, 0.02862782960963939800 ) ) ;
#257 = DIRECTION ( 'NONE',  ( 0.0000000000000000000, 0.0000000000000000000, 1.000000000000000000 ) ) ;
#258 = DIRECTION ( 'NONE',  ( 0.0000000000000000000, 1.000000000000000000, 0.0000000000000000000 ) ) ;
#259 = CARTESIAN_POINT ( 'NONE',  ( 0.08383221091442216700, 0.06636521039136134000, -0.04985205707922919800 ) ) ;
#260 = AXIS2_PLACEMENT_3D ( 'NONE', #259, #258, #257 ) ;
#261 = PLANE ( 'NONE',  #260 ) ;
#262 = FILL_AREA_STYLE_COLOUR ( '', #315 ) ;
#263 = DIRECTION ( 'NONE',  ( -0.3887221331592490800, 0.0000000000000000000, -0.9213550364501855700 ) ) ;
#264 = VECTOR ( 'NONE', #263, 39.37007874015748900 ) ;
#265 = CARTESIAN_POINT ( 'NONE',  ( 0.2002432548953753900, 0.007310092281125131700, 0.02862782960963939800 ) ) ;
#266 = LINE ( 'NONE', #265, #264 ) ;
#267 = DIRECTION ( 'NONE',  ( -0.3887221331592490800, 0.0000000000000000000, -0.9213550364501855700 ) ) ;
#268 = VECTOR ( 'NONE', #267, 39.37007874015748900 ) ;
#269 = CARTESIAN_POINT ( 'NONE',  ( 0.2002432548953753900, 0.007310092281125131700, 0.02862782960963939800 ) ) ;
#270 = LINE ( 'NONE', #269, #268 ) ;
#271 = DIRECTION ( 'NONE',  ( 0.0000000000000000000, 0.0000000000000000000, 1.000000000000000000 ) ) ;
#272 = DIRECTION ( 'NONE',  ( 0.0000000000000000000, 1.000000000000000000, 0.0000000000000000000 ) ) ;
#273 = CARTESIAN_POINT ( 'NONE',  ( 0.009029061308122938300, 0.007310092281125131700, -0.04985205707922919800 ) ) ;
#274 = AXIS2_PLACEMENT_3D ( 'NONE', #273, #272, #271 ) ;
#275 = CIRCLE ( 'NONE', #274, 0.1456692913385827000 ) ;
#276 = DIRECTION ( 'NONE',  ( 0.0000000000000000000, 1.000000000000000000, 0.0000000000000000000 ) ) ;
#277 = VECTOR ( 'NONE', #276, 39.37007874015748100 ) ;
#278 = CARTESIAN_POINT ( 'NONE',  ( 0.009029061308122938300, 0.06636521039136134000, 0.1568408563065976400 ) ) ;
#279 = LINE ( 'NONE', #278, #277 ) ;
#280 = CARTESIAN_POINT ( 'NONE',  ( 0.009029061308122938300, 0.007310092281125131700, 0.1568408563065976400 ) ) ;
#281 = CARTESIAN_POINT ( 'NONE',  ( 0.009029061308122938300, 0.06636521039136134000, 0.1568408563065976400 ) ) ;
#282 = DIRECTION ( 'NONE',  ( 0.0000000000000000000, -1.000000000000000000, 0.0000000000000000000 ) ) ;
#283 = VECTOR ( 'NONE', #282, 39.37007874015748100 ) ;
#284 = CARTESIAN_POINT ( 'NONE',  ( 0.08624113818273562700, 0.4010108796826999400, -0.2415816990979577900 ) ) ;
#285 = LINE ( 'NONE', #284, #283 ) ;
#286 = DIRECTION ( 'NONE',  ( 0.3887221331592490800, 0.0000000000000000000, 0.9213550364501855700 ) ) ;
#287 = DIRECTION ( 'NONE',  ( -0.9213550364501856800, 0.0000000000000000000, 0.3887221331592491400 ) ) ;
#288 = CARTESIAN_POINT ( 'NONE',  ( 0.2002432548953753900, 0.4010108796826999400, 0.02862782960963939800 ) ) ;
#289 = AXIS2_PLACEMENT_3D ( 'NONE', #288, #287, #286 ) ;
#290 = PLANE ( 'NONE',  #289 ) ;
#291 =( GEOMETRIC_REPRESENTATION_CONTEXT ( 3 ) GLOBAL_UNCERTAINTY_ASSIGNED_CONTEXT ( ( #233 ) ) GLOBAL_UNIT_ASSIGNED_CONTEXT ( ( #236, #235, #234 ) ) REPRESENTATION_CONTEXT ( 'NONE', 'WORKASPACE' ) );
#292 = CIRCLE ( 'NONE', #351, 0.2066929133858268200 ) ;
#293 = DIRECTION ( 'NONE',  ( 0.0000000000000000000, 0.0000000000000000000, 1.000000000000000000 ) ) ;
#294 = DIRECTION ( 'NONE',  ( 0.0000000000000000000, 1.000000000000000000, 0.0000000000000000000 ) ) ;
#295 = AXIS2_PLACEMENT_3D ( 'NONE', #298, #294, #293 ) ;
#296 = CYLINDRICAL_SURFACE ( 'NONE', #295, 0.2066929133858268200 ) ;
#297 = CARTESIAN_POINT ( 'NONE',  ( 0.009029061308122938300, 0.007310092281125131700, -0.04985205707922919800 ) ) ;
#298 = CARTESIAN_POINT ( 'NONE',  ( 0.009029061308122938300, 0.06636521039136134000, -0.04985205707922919800 ) ) ;
#299 =( GEOMETRIC_REPRESENTATION_CONTEXT ( 3 ) GLOBAL_UNCERTAINTY_ASSIGNED_CONTEXT ( ( #300 ) ) GLOBAL_UNIT_ASSIGNED_CONTEXT ( ( #303, #302, #301 ) ) REPRESENTATION_CONTEXT ( 'NONE', 'WORKASPACE' ) );
#300 = UNCERTAINTY_MEASURE_WITH_UNIT (LENGTH_MEASURE( 1.000000000000000100E-005 ), #303, 'distance_accuracy_value', 'NONE');
#301 =( NAMED_UNIT ( * ) SI_UNIT ( $, .STERADIAN. ) SOLID_ANGLE_UNIT ( ) );
#302 =( NAMED_UNIT ( * ) PLANE_ANGLE_UNIT ( ) SI_UNIT ( $, .RADIAN. ) );
#303 =( CONVERSION_BASED_UNIT ( 'INCH', #304 ) LENGTH_UNIT ( ) NAMED_UNIT ( #305 ) );
#304 = LENGTH_MEASURE_WITH_UNIT ( LENGTH_MEASURE( 0.02539999999999999900 ), #306 );
#305 = DIMENSIONAL_EXPONENTS ( 1.000000000000000000, 0.0000000000000000000, 0.0000000000000000000, 0.0000000000000000000, 0.0000000000000000000, 0.0000000000000000000, 0.0000000000000000000 ) ;
#306 =( LENGTH_UNIT ( ) NAMED_UNIT ( * ) SI_UNIT ( $, .METRE. ) );
#307 = MECHANICAL_DESIGN_GEOMETRIC_PRESENTATION_REPRESENTATION (  '', ( #309 ), #299 ) ;
#308 = PRESENTATION_LAYER_ASSIGNMENT (  '', '', ( #309 ) ) ;
#309 = STYLED_ITEM ( 'NONE', ( #310 ), #55 ) ;
#310 = PRESENTATION_STYLE_ASSIGNMENT (( #311 ) ) ;
#311 = SURFACE_STYLE_USAGE ( .BOTH. , #312 ) ;
#312 = SURFACE_SIDE_STYLE ('',( #313 ) ) ;
#313 = SURFACE_STYLE_FILL_AREA ( #314 ) ;
#314 = FILL_AREA_STYLE ('',( #262 ) ) ;
#315 = COLOUR_RGB ( '',0.7529411764705882200, 0.7529411764705882200, 0.7529411764705882200 ) ;
#316 = FACE_OUTER_BOUND ( 'NONE', #56, .T. ) ;
#317 =( NAMED_UNIT ( * ) PLANE_ANGLE_UNIT ( ) SI_UNIT ( $, .RADIAN. ) );
#318 =( CONVERSION_BASED_UNIT ( 'INCH', #319 ) LENGTH_UNIT ( ) NAMED_UNIT ( #320 ) );
#319 = LENGTH_MEASURE_WITH_UNIT ( LENGTH_MEASURE( 0.02539999999999999900 ), #321 );
#320 = DIMENSIONAL_EXPONENTS ( 1.000000000000000000, 0.0000000000000000000, 0.0000000000000000000, 0.0000000000000000000, 0.0000000000000000000, 0.0000000000000000000, 0.0000000000000000000 ) ;
#321 =( LENGTH_UNIT ( ) NAMED_UNIT ( * ) SI_UNIT ( $, .METRE. ) );
#322 = MECHANICAL_DESIGN_GEOMETRIC_PRESENTATION_REPRESENTATION (  '', ( #324 ), #372 ) ;
#323 = PRESENTATION_LAYER_ASSIGNMENT (  '', '', ( #324 ) ) ;
#324 = STYLED_ITEM ( 'NONE', ( #325 ), #68 ) ;
#325 = PRESENTATION_STYLE_ASSIGNMENT (( #326 ) ) ;
#326 = SURFACE_STYLE_USAGE ( .BOTH. , #327 ) ;
#327 = SURFACE_SIDE_STYLE ('',( #328 ) ) ;
#328 = SURFACE_STYLE_FILL_AREA ( #329 ) ;
#329 = FILL_AREA_STYLE ('',( #336 ) ) ;
#330 = COLOUR_RGB ( '',0.7529411764705882200, 0.7529411764705882200, 0.7529411764705882200 ) ;
#331 = FACE_OUTER_BOUND ( 'NONE', #69, .T. ) ;
#332 = DIRECTION ( 'NONE',  ( 0.0000000000000000000, 1.000000000000000000, 0.0000000000000000000 ) ) ;
#333 = VECTOR ( 'NONE', #332, 39.37007874015748100 ) ;
#334 = CARTESIAN_POINT ( 'NONE',  ( 0.009029061308122938300, 0.06636521039136134000, 0.09581723425935349800 ) ) ;
#335 = LINE ( 'NONE', #334, #333 ) ;
#336 = FILL_AREA_STYLE_COLOUR ( '', #330 ) ;
#337 = CARTESIAN_POINT ( 'NONE',  ( 0.009029061308122938300, 0.007310092281125131700, 0.09581723425935349800 ) ) ;
#338 = DIRECTION ( 'NONE',  ( 0.0000000000000000000, 0.0000000000000000000, 1.000000000000000000 ) ) ;
#339 = DIRECTION ( 'NONE',  ( 0.0000000000000000000, 1.000000000000000000, 0.0000000000000000000 ) ) ;
#340 = CARTESIAN_POINT ( 'NONE',  ( 0.009029061308122938300, 0.007310092281125131700, -0.04985205707922919800 ) ) ;
#341 = AXIS2_PLACEMENT_3D ( 'NONE', #340, #339, #338 ) ;
#342 = CIRCLE ( 'NONE', #341, 0.1456692913385827000 ) ;
#343 = CARTESIAN_POINT ( 'NONE',  ( 0.1432421965390555100, 0.007310092281125131700, -0.1064769347441592200 ) ) ;
#344 = DIRECTION ( 'NONE',  ( 0.0000000000000000000, 0.0000000000000000000, 1.000000000000000000 ) ) ;
#345 = DIRECTION ( 'NONE',  ( 0.0000000000000000000, 1.000000000000000000, 0.0000000000000000000 ) ) ;
#346 = CARTESIAN_POINT ( 'NONE',  ( 0.009029061308122938300, 0.007310092281125131700, -0.04985205707922919800 ) ) ;
#347 = AXIS2_PLACEMENT_3D ( 'NONE', #346, #345, #344 ) ;
#348 = CIRCLE ( 'NONE', #347, 0.1456692913385827000 ) ;
#349 = DIRECTION ( 'NONE',  ( 0.0000000000000000000, 0.0000000000000000000, 1.000000000000000000 ) ) ;
#350 = DIRECTION ( 'NONE',  ( 0.0000000000000000000, 1.000000000000000000, 0.0000000000000000000 ) ) ;
#351 = AXIS2_PLACEMENT_3D ( 'NONE', #297, #350, #349 ) ;
#352 = DIRECTION ( 'NONE',  ( 0.0000000000000000000, 1.000000000000000000, 0.0000000000000000000 ) ) ;
#353 = CARTESIAN_POINT ( 'NONE',  ( 0.009029061308122938300, 0.06636521039136134000, -0.04985205707922919800 ) ) ;
#354 = AXIS2_PLACEMENT_3D ( 'NONE', #353, #352, #1 ) ;
#355 = CIRCLE ( 'NONE', #354, 0.07480314960629921800 ) ;
#356 = DIRECTION ( 'NONE',  ( 0.0000000000000000000, 1.000000000000000000, 0.0000000000000000000 ) ) ;
#357 = VECTOR ( 'NONE', #356, 39.37007874015748100 ) ;
#358 = CARTESIAN_POINT ( 'NONE',  ( 0.009029061308122962600, 0.06636521039136134000, -0.2565449704650560300 ) ) ;
#359 = LINE ( 'NONE', #358, #357 ) ;
#360 = CARTESIAN_POINT ( 'NONE',  ( 0.009029061308122962600, 0.007310092281125131700, -0.2565449704650560300 ) ) ;
#361 = CARTESIAN_POINT ( 'NONE',  ( 0.08624113818273562700, 0.007310092281125131700, -0.2415816990979577900 ) ) ;
#362 = DIRECTION ( 'NONE',  ( 0.0000000000000000000, 0.0000000000000000000, 1.000000000000000000 ) ) ;
#363 = DIRECTION ( 'NONE',  ( 0.0000000000000000000, 1.000000000000000000, 0.0000000000000000000 ) ) ;
#364 = AXIS2_PLACEMENT_3D ( 'NONE', #370, #363, #362 ) ;
#365 = CIRCLE ( 'NONE', #364, 0.2066929133858268200 ) ;
#366 = DIRECTION ( 'NONE',  ( 0.0000000000000000000, 0.0000000000000000000, 1.000000000000000000 ) ) ;
#367 = DIRECTION ( 'NONE',  ( 0.0000000000000000000, 1.000000000000000000, 0.0000000000000000000 ) ) ;
#368 = AXIS2_PLACEMENT_3D ( 'NONE', #371, #367, #366 ) ;
#369 = CYLINDRICAL_SURFACE ( 'NONE', #368, 0.2066929133858268200 ) ;
#370 = CARTESIAN_POINT ( 'NONE',  ( 0.009029061308122938300, 0.007310092281125131700, -0.04985205707922919800 ) ) ;
#371 = CARTESIAN_POINT ( 'NONE',  ( 0.009029061308122938300, 0.06636521039136134000, -0.04985205707922919800 ) ) ;
#372 =( GEOMETRIC_REPRESENTATION_CONTEXT ( 3 ) GLOBAL_UNCERTAINTY_ASSIGNED_CONTEXT ( ( #373 ) ) GLOBAL_UNIT_ASSIGNED_CONTEXT ( ( #318, #317, #374 ) ) REPRESENTATION_CONTEXT ( 'NONE', 'WORKASPACE' ) );
#373 = UNCERTAINTY_MEASURE_WITH_UNIT (LENGTH_MEASURE( 1.000000000000000100E-005 ), #318, 'distance_accuracy_value', 'NONE');
#374 =( NAMED_UNIT ( * ) SI_UNIT ( $, .STERADIAN. ) SOLID_ANGLE_UNIT ( ) );
#375 = CYLINDRICAL_SURFACE ( 'NONE', #432, 0.1456692913385827000 ) ;
#376 = CARTESIAN_POINT ( 'NONE',  ( 0.009029061308122938300, 0.06636521039136134000, -0.04985205707922919800 ) ) ;
#377 =( GEOMETRIC_REPRESENTATION_CONTEXT ( 3 ) GLOBAL_UNCERTAINTY_ASSIGNED_CONTEXT ( ( #378 ) ) GLOBAL_UNIT_ASSIGNED_CONTEXT ( ( #381, #380, #379 ) ) REPRESENTATION_CONTEXT ( 'NONE', 'WORKASPACE' ) );
#378 = UNCERTAINTY_MEASURE_WITH_UNIT (LENGTH_MEASURE( 1.000000000000000100E-005 ), #381, 'distance_accuracy_value', 'NONE');
#379 =( NAMED_UNIT ( * ) SI_UNIT ( $, .STERADIAN. ) SOLID_ANGLE_UNIT ( ) );
#380 =( NAMED_UNIT ( * ) PLANE_ANGLE_UNIT ( ) SI_UNIT ( $, .RADIAN. ) );
#381 =( CONVERSION_BASED_UNIT ( 'INCH', #382 ) LENGTH_UNIT ( ) NAMED_UNIT ( #383 ) );
#382 = LENGTH_MEASURE_WITH_UNIT ( LENGTH_MEASURE( 0.02539999999999999900 ), #384 );
#383 = DIMENSIONAL_EXPONENTS ( 1.000000000000000000, 0.0000000000000000000, 0.0000000000000000000, 0.0000000000000000000, 0.0000000000000000000, 0.0000000000000000000, 0.0000000000000000000 ) ;
#384 =( LENGTH_UNIT ( ) NAMED_UNIT ( * ) SI_UNIT ( $, .METRE. ) );
#385 = MECHANICAL_DESIGN_GEOMETRIC_PRESENTATION_REPRESENTATION (  '', ( #387 ), #377 ) ;
#386 = PRESENTATION_LAYER_ASSIGNMENT (  '', '', ( #387 ) ) ;
#387 = STYLED_ITEM ( 'NONE', ( #388 ), #81 ) ;
#388 = PRESENTATION_STYLE_ASSIGNMENT (( #389 ) ) ;
#389 = SURFACE_STYLE_USAGE ( .BOTH. , #390 ) ;
#390 = SURFACE_SIDE_STYLE ('',( #391 ) ) ;
#391 = SURFACE_STYLE_FILL_AREA ( #392 ) ;
#392 = FILL_AREA_STYLE ('',( #399 ) ) ;
#393 = COLOUR_RGB ( '',0.7529411764705882200, 0.7529411764705882200, 0.7529411764705882200 ) ;
#394 = FACE_OUTER_BOUND ( 'NONE', #82, .T. ) ;
#395 = DIRECTION ( 'NONE',  ( 0.0000000000000000000, 1.000000000000000000, 0.0000000000000000000 ) ) ;
#396 = VECTOR ( 'NONE', #395, 39.37007874015748100 ) ;
#397 = CARTESIAN_POINT ( 'NONE',  ( 0.009029061308122938300, 0.06636521039136134000, 0.02495109252707002100 ) ) ;
#398 = LINE ( 'NONE', #397, #396 ) ;
#399 = FILL_AREA_STYLE_COLOUR ( '', #393 ) ;
#400 = CARTESIAN_POINT ( 'NONE',  ( 0.009029061308122938300, 0.06636521039136134000, 0.02495109252707002100 ) ) ;
#401 = UNCERTAINTY_MEASURE_WITH_UNIT (LENGTH_MEASURE( 1.000000000000000100E-005 ), #404, 'distance_accuracy_value', 'NONE');
#402 =( NAMED_UNIT ( * ) SI_UNIT ( $, .STERADIAN. ) SOLID_ANGLE_UNIT ( ) );
#403 =( NAMED_UNIT ( * ) PLANE_ANGLE_UNIT ( ) SI_UNIT ( $, .RADIAN. ) );
#404 =( CONVERSION_BASED_UNIT ( 'INCH', #405 ) LENGTH_UNIT ( ) NAMED_UNIT ( #406 ) );
#405 = LENGTH_MEASURE_WITH_UNIT ( LENGTH_MEASURE( 0.02539999999999999900 ), #407 );
#406 = DIMENSIONAL_EXPONENTS ( 1.000000000000000000, 0.0000000000000000000, 0.0000000000000000000, 0.0000000000000000000, 0.0000000000000000000, 0.0000000000000000000, 0.0000000000000000000 ) ;
#407 =( LENGTH_UNIT ( ) NAMED_UNIT ( * ) SI_UNIT ( $, .METRE. ) );
#408 = MECHANICAL_DESIGN_GEOMETRIC_PRESENTATION_REPRESENTATION (  '', ( #410 ), #457 ) ;
#409 = PRESENTATION_LAYER_ASSIGNMENT (  '', '', ( #410 ) ) ;
#410 = STYLED_ITEM ( 'NONE', ( #411 ), #92 ) ;
#411 = PRESENTATION_STYLE_ASSIGNMENT (( #412 ) ) ;
#412 = SURFACE_STYLE_USAGE ( .BOTH. , #413 ) ;
#413 = SURFACE_SIDE_STYLE ('',( #414 ) ) ;
#414 = SURFACE_STYLE_FILL_AREA ( #415 ) ;
#415 = FILL_AREA_STYLE ('',( #416 ) ) ;
#416 = FILL_AREA_STYLE_COLOUR ( '', #417 ) ;
#417 = COLOUR_RGB ( '',0.7529411764705882200, 0.7529411764705882200, 0.7529411764705882200 ) ;
#418 = FACE_OUTER_BOUND ( 'NONE', #93, .T. ) ;
#419 = CARTESIAN_POINT ( 'NONE',  ( 0.009029061308122955700, 0.007310092281125131700, -0.1955213484178118800 ) ) ;
#420 = DIRECTION ( 'NONE',  ( 0.0000000000000000000, 1.000000000000000000, 0.0000000000000000000 ) ) ;
#421 = VECTOR ( 'NONE', #420, 39.37007874015748100 ) ;
#422 = CARTESIAN_POINT ( 'NONE',  ( 0.009029061308122955700, 0.06636521039136134000, -0.1955213484178118800 ) ) ;
#423 = LINE ( 'NONE', #422, #421 ) ;
#424 = CARTESIAN_POINT ( 'NONE',  ( 0.009029061308122955700, -0.09898912031730017200, -0.1955213484178118800 ) ) ;
#425 = CARTESIAN_POINT ( 'NONE',  ( 0.009029061308122938300, -0.09898912031730017200, 0.09581723425935347000 ) ) ;
#426 = DIRECTION ( 'NONE',  ( 0.0000000000000000000, 0.0000000000000000000, 1.000000000000000000 ) ) ;
#427 = DIRECTION ( 'NONE',  ( 0.0000000000000000000, 1.000000000000000000, 0.0000000000000000000 ) ) ;
#428 = CARTESIAN_POINT ( 'NONE',  ( 0.009029061308122938300, -0.09898912031730017200, -0.04985205707922919800 ) ) ;
#429 = AXIS2_PLACEMENT_3D ( 'NONE', #428, #427, #426 ) ;
#430 = DIRECTION ( 'NONE',  ( 0.0000000000000000000, 0.0000000000000000000, 1.000000000000000000 ) ) ;
#431 = DIRECTION ( 'NONE',  ( 0.0000000000000000000, 1.000000000000000000, 0.0000000000000000000 ) ) ;
#432 = AXIS2_PLACEMENT_3D ( 'NONE', #376, #431, #430 ) ;
#433 = CIRCLE ( 'NONE', #429, 0.1456692913385826700 ) ;
#434 = UNCERTAINTY_MEASURE_WITH_UNIT (LENGTH_MEASURE( 1.000000000000000100E-005 ), #437, 'distance_accuracy_value', 'NONE');
#435 =( NAMED_UNIT ( * ) SI_UNIT ( $, .STERADIAN. ) SOLID_ANGLE_UNIT ( ) );
#436 =( NAMED_UNIT ( * ) PLANE_ANGLE_UNIT ( ) SI_UNIT ( $, .RADIAN. ) );
#437 =( CONVERSION_BASED_UNIT ( 'INCH', #438 ) LENGTH_UNIT ( ) NAMED_UNIT ( #439 ) );
#438 = LENGTH_MEASURE_WITH_UNIT ( LENGTH_MEASURE( 0.02539999999999999900 ), #440 );
#439 = DIMENSIONAL_EXPONENTS ( 1.000000000000000000, 0.0000000000000000000, 0.0000000000000000000, 0.0000000000000000000, 0.0000000000000000000, 0.0000000000000000000, 0.0000000000000000000 ) ;
#440 =( LENGTH_UNIT ( ) NAMED_UNIT ( * ) SI_UNIT ( $, .METRE. ) );
#441 = MECHANICAL_DESIGN_GEOMETRIC_PRESENTATION_REPRESENTATION (  '', ( #443 ), #487 ) ;
#442 = PRESENTATION_LAYER_ASSIGNMENT (  '', '', ( #443 ) ) ;
#443 = STYLED_ITEM ( 'NONE', ( #444 ), #99 ) ;
#444 = PRESENTATION_STYLE_ASSIGNMENT (( #445 ) ) ;
#445 = SURFACE_STYLE_USAGE ( .BOTH. , #446 ) ;
#446 = SURFACE_SIDE_STYLE ('',( #447 ) ) ;
#447 = SURFACE_STYLE_FILL_AREA ( #454 ) ;
#448 = COLOUR_RGB ( '',0.7529411764705882200, 0.7529411764705882200, 0.7529411764705882200 ) ;
#449 = FACE_OUTER_BOUND ( 'NONE', #100, .T. ) ;
#450 = DIRECTION ( 'NONE',  ( 0.0000000000000000000, 0.0000000000000000000, 1.000000000000000000 ) ) ;
#451 = DIRECTION ( 'NONE',  ( 0.0000000000000000000, 1.000000000000000000, 0.0000000000000000000 ) ) ;
#452 = AXIS2_PLACEMENT_3D ( 'NONE', #456, #451, #450 ) ;
#453 = CYLINDRICAL_SURFACE ( 'NONE', #452, 0.07480314960629921800 ) ;
#454 = FILL_AREA_STYLE ('',( #455 ) ) ;
#455 = FILL_AREA_STYLE_COLOUR ( '', #448 ) ;
#456 = CARTESIAN_POINT ( 'NONE',  ( 0.009029061308122938300, 0.06636521039136134000, -0.04985205707922919800 ) ) ;
#457 =( GEOMETRIC_REPRESENTATION_CONTEXT ( 3 ) GLOBAL_UNCERTAINTY_ASSIGNED_CONTEXT ( ( #401 ) ) GLOBAL_UNIT_ASSIGNED_CONTEXT ( ( #404, #403, #402 ) ) REPRESENTATION_CONTEXT ( 'NONE', 'WORKASPACE' ) );
#458 = UNCERTAINTY_MEASURE_WITH_UNIT (LENGTH_MEASURE( 1.000000000000000100E-005 ), #461, 'distance_accuracy_value', 'NONE');
#459 =( NAMED_UNIT ( * ) SI_UNIT ( $, .STERADIAN. ) SOLID_ANGLE_UNIT ( ) );
#460 =( NAMED_UNIT ( * ) PLANE_ANGLE_UNIT ( ) SI_UNIT ( $, .RADIAN. ) );
#461 =( CONVERSION_BASED_UNIT ( 'INCH', #462 ) LENGTH_UNIT ( ) NAMED_UNIT ( #463 ) );
#462 = LENGTH_MEASURE_WITH_UNIT ( LENGTH_MEASURE( 0.02539999999999999900 ), #464 );
#463 = DIMENSIONAL_EXPONENTS ( 1.000000000000000000, 0.0000000000000000000, 0.0000000000000000000, 0.0000000000000000000, 0.0000000000000000000, 0.0000000000000000000, 0.0000000000000000000 ) ;
#464 =( LENGTH_UNIT ( ) NAMED_UNIT ( * ) SI_UNIT ( $, .METRE. ) );
#465 = MECHANICAL_DESIGN_GEOMETRIC_PRESENTATION_REPRESENTATION (  '', ( #467 ), #514 ) ;
#466 = PRESENTATION_LAYER_ASSIGNMENT (  '', '', ( #467 ) ) ;
#467 = STYLED_ITEM ( 'NONE', ( #468 ), #106 ) ;
#468 = PRESENTATION_STYLE_ASSIGNMENT (( #469 ) ) ;
#469 = SURFACE_STYLE_USAGE ( .BOTH. , #470 ) ;
#470 = SURFACE_SIDE_STYLE ('',( #471 ) ) ;
#471 = SURFACE_STYLE_FILL_AREA ( #472 ) ;
#472 = FILL_AREA_STYLE ('',( #480 ) ) ;
#473 = COLOUR_RGB ( '',0.7529411764705882200, 0.7529411764705882200, 0.7529411764705882200 ) ;
#474 = FACE_OUTER_BOUND ( 'NONE', #111, .T. ) ;
#475 = FACE_BOUND ( 'NONE', #107, .T. ) ;
#476 = DIRECTION ( 'NONE',  ( 0.0000000000000000000, 0.0000000000000000000, 1.000000000000000000 ) ) ;
#477 = DIRECTION ( 'NONE',  ( 0.0000000000000000000, 1.000000000000000000, 0.0000000000000000000 ) ) ;
#478 = AXIS2_PLACEMENT_3D ( 'NONE', #485, #477, #476 ) ;
#479 = CIRCLE ( 'NONE', #478, 0.1456692913385826700 ) ;
#480 = FILL_AREA_STYLE_COLOUR ( '', #473 ) ;
#481 = DIRECTION ( 'NONE',  ( 0.0000000000000000000, 0.0000000000000000000, 1.000000000000000000 ) ) ;
#482 = DIRECTION ( 'NONE',  ( 0.0000000000000000000, 1.000000000000000000, 0.0000000000000000000 ) ) ;
#483 = AXIS2_PLACEMENT_3D ( 'NONE', #486, #482, #481 ) ;
#484 = CYLINDRICAL_SURFACE ( 'NONE', #483, 0.1456692913385827000 ) ;
#485 = CARTESIAN_POINT ( 'NONE',  ( 0.009029061308122938300, -0.09898912031730017200, -0.04985205707922919800 ) ) ;
#486 = CARTESIAN_POINT ( 'NONE',  ( 0.009029061308122938300, 0.06636521039136134000, -0.04985205707922919800 ) ) ;
#487 =( GEOMETRIC_REPRESENTATION_CONTEXT ( 3 ) GLOBAL_UNCERTAINTY_ASSIGNED_CONTEXT ( ( #434 ) ) GLOBAL_UNIT_ASSIGNED_CONTEXT ( ( #437, #436, #435 ) ) REPRESENTATION_CONTEXT ( 'NONE', 'WORKASPACE' ) );
#488 =( NAMED_UNIT ( * ) PLANE_ANGLE_UNIT ( ) SI_UNIT ( $, .RADIAN. ) );
#489 =( CONVERSION_BASED_UNIT ( 'INCH', #490 ) LENGTH_UNIT ( ) NAMED_UNIT ( #491 ) );
#490 = LENGTH_MEASURE_WITH_UNIT ( LENGTH_MEASURE( 0.02539999999999999900 ), #492 );
#491 = DIMENSIONAL_EXPONENTS ( 1.000000000000000000, 0.0000000000000000000, 0.0000000000000000000, 0.0000000000000000000, 0.0000000000000000000, 0.0000000000000000000, 0.0000000000000000000 ) ;
#492 =( LENGTH_UNIT ( ) NAMED_UNIT ( * ) SI_UNIT ( $, .METRE. ) );
#493 = MECHANICAL_DESIGN_GEOMETRIC_PRESENTATION_REPRESENTATION (  '', ( #495 ), #528 ) ;
#494 = PRESENTATION_LAYER_ASSIGNMENT (  '', '', ( #495 ) ) ;
#495 = STYLED_ITEM ( 'NONE', ( #496 ), #113 ) ;
#496 = PRESENTATION_STYLE_ASSIGNMENT (( #497 ) ) ;
#497 = SURFACE_STYLE_USAGE ( .BOTH. , #498 ) ;
#498 = SURFACE_SIDE_STYLE ('',( #499 ) ) ;
#499 = SURFACE_STYLE_FILL_AREA ( #500 ) ;
#500 = FILL_AREA_STYLE ('',( #508 ) ) ;
#501 = COLOUR_RGB ( '',0.7529411764705882200, 0.7529411764705882200, 0.7529411764705882200 ) ;
#502 = FACE_OUTER_BOUND ( 'NONE', #114, .T. ) ;
#503 = DIRECTION ( 'NONE',  ( 0.0000000000000000000, 0.0000000000000000000, 1.000000000000000000 ) ) ;
#504 = DIRECTION ( 'NONE',  ( 0.0000000000000000000, 1.000000000000000000, 0.0000000000000000000 ) ) ;
#505 = CARTESIAN_POINT ( 'NONE',  ( 0.009029061308122938300, -0.09898912031730010300, -0.04985205707922919800 ) ) ;
#506 = AXIS2_PLACEMENT_3D ( 'NONE', #505, #504, #503 ) ;
#507 = CIRCLE ( 'NONE', #506, 0.07480314960629921800 ) ;
#508 = FILL_AREA_STYLE_COLOUR ( '', #501 ) ;
#509 = DIRECTION ( 'NONE',  ( 0.0000000000000000000, 0.0000000000000000000, -1.000000000000000000 ) ) ;
#510 = DIRECTION ( 'NONE',  ( 0.0000000000000000000, -1.000000000000000000, 0.0000000000000000000 ) ) ;
#511 = CARTESIAN_POINT ( 'NONE',  ( 0.1546983526467056200, -0.09898912031730014400, -0.04985205707922919800 ) ) ;
#512 = AXIS2_PLACEMENT_3D ( 'NONE', #511, #510, #509 ) ;
#513 = PLANE ( 'NONE',  #512 ) ;
#514 =( GEOMETRIC_REPRESENTATION_CONTEXT ( 3 ) GLOBAL_UNCERTAINTY_ASSIGNED_CONTEXT ( ( #458 ) ) GLOBAL_UNIT_ASSIGNED_CONTEXT ( ( #461, #460, #459 ) ) REPRESENTATION_CONTEXT ( 'NONE', 'WORKASPACE' ) );
#515 =( GEOMETRIC_REPRESENTATION_CONTEXT ( 3 ) GLOBAL_UNCERTAINTY_ASSIGNED_CONTEXT ( ( #516 ) ) GLOBAL_UNIT_ASSIGNED_CONTEXT ( ( #519, #518, #517 ) ) REPRESENTATION_CONTEXT ( 'NONE', 'WORKASPACE' ) );
#516 = UNCERTAINTY_MEASURE_WITH_UNIT (LENGTH_MEASURE( 1.000000000000000100E-005 ), #519, 'distance_accuracy_value', 'NONE');
#517 =( NAMED_UNIT ( * ) SI_UNIT ( $, .STERADIAN. ) SOLID_ANGLE_UNIT ( ) );
#518 =( NAMED_UNIT ( * ) PLANE_ANGLE_UNIT ( ) SI_UNIT ( $, .RADIAN. ) );
#519 =( CONVERSION_BASED_UNIT ( 'INCH', #520 ) LENGTH_UNIT ( ) NAMED_UNIT ( #521 ) );
#520 = LENGTH_MEASURE_WITH_UNIT ( LENGTH_MEASURE( 0.02539999999999999900 ), #522 );
#521 = DIMENSIONAL_EXPONENTS ( 1.000000000000000000, 0.0000000000000000000, 0.0000000000000000000, 0.0000000000000000000, 0.0000000000000000000, 0.0000000000000000000, 0.0000000000000000000 ) ;
#522 =( LENGTH_UNIT ( ) NAMED_UNIT ( * ) SI_UNIT ( $, .METRE. ) );
#523 = DIRECTION ( 'NONE',  ( 0.0000000000000000000, 0.0000000000000000000, -1.000000000000000000 ) ) ;
#524 = DIRECTION ( 'NONE',  ( 0.0000000000000000000, -1.000000000000000000, 0.0000000000000000000 ) ) ;
#525 = CARTESIAN_POINT ( 'NONE',  ( 0.2157219746939497700, 0.007310092281125131700, -0.04985205707922919800 ) ) ;
#526 = AXIS2_PLACEMENT_3D ( 'NONE', #525, #524, #523 ) ;
#527 = PLANE ( 'NONE',  #526 ) ;
#528 =( GEOMETRIC_REPRESENTATION_CONTEXT ( 3 ) GLOBAL_UNCERTAINTY_ASSIGNED_CONTEXT ( ( #529 ) ) GLOBAL_UNIT_ASSIGNED_CONTEXT ( ( #489, #488, #530 ) ) REPRESENTATION_CONTEXT ( 'NONE', 'WORKASPACE' ) );
#529 = UNCERTAINTY_MEASURE_WITH_UNIT (LENGTH_MEASURE( 1.000000000000000100E-005 ), #489, 'distance_accuracy_value', 'NONE');
#530 =( NAMED_UNIT ( * ) SI_UNIT ( $, .STERADIAN. ) SOLID_ANGLE_UNIT ( ) );
#531 = DIRECTION ( 'NONE',  ( 1.000000000000000000, 0.0000000000000000000, 0.0000000000000000000 ) ) ;
#532 = DIRECTION ( 'NONE',  ( 0.0000000000000000000, 0.0000000000000000000, 1.000000000000000000 ) ) ;
#533 = CARTESIAN_POINT ( 'NONE',  ( 0.0000000000000000000, 0.0000000000000000000, 0.0000000000000000000 ) ) ;
#534 = AXIS2_PLACEMENT_3D ( 'NONE', #533, #532, #531 ) ;
#535 = SHAPE_DEFINITION_REPRESENTATION ( #538, #537 ) ;
#536 = SHELL_BASED_SURFACE_MODEL ( 'NONE', ( #98 ) );
#537 = MANIFOLD_SURFACE_SHAPE_REPRESENTATION ( '10775-E0W', ( #536, #534 ), #515 ) ;
#538 = PRODUCT_DEFINITION_SHAPE ( 'NONE', 'NONE',  #541 ) ;
#539 = PRODUCT_RELATED_PRODUCT_CATEGORY ( 'part', '', ( #545 ) ) ;
#540 = PRODUCT_DEFINITION_FORMATION_WITH_SPECIFIED_SOURCE ( 'ANY', '', #545, .NOT_KNOWN. ) ;
#541 = PRODUCT_DEFINITION ( 'UNKNOWN', '', #540, #542 ) ;
#542 = PRODUCT_DEFINITION_CONTEXT ( 'detailed design', #544, 'design' ) ;
#543 = APPLICATION_PROTOCOL_DEFINITION ( 'draft international standard', 'automotive_design', 1998, #544 ) ;
#544 = APPLICATION_CONTEXT ( 'automotive_design' ) ;
#545 = PRODUCT ( '10775-E0W', '10775-E0W', '', ( #546 ) ) ;
#546 = PRODUCT_CONTEXT ( 'NONE', #548, 'mechanical' ) ;
#547 = APPLICATION_PROTOCOL_DEFINITION ( 'draft international standard', 'automotive_design', 1998, #548 ) ;
#548 = APPLICATION_CONTEXT ( 'automotive_design' ) ;
ENDSEC;
END-ISO-10303-21;
